<?xml version="1.0" encoding="UTF-8"?><svg xmlns="http://www.w3.org/2000/svg" xmlns:xlink="http://www.w3.org/1999/xlink" fill-opacity="1" color-rendering="auto" color-interpolation="auto" text-rendering="auto" stroke="black" stroke-linecap="square" width="774" stroke-miterlimit="10" shape-rendering="auto" stroke-opacity="1" fill="black" stroke-dasharray="none" font-weight="normal" stroke-width="1" height="488" font-family="'Dialog'" font-style="normal" stroke-linejoin="miter" font-size="12px" stroke-dashoffset="0" image-rendering="auto">
  <!--Generated by ySVG 2.5-->
  <defs id="genericDefs"/>
  <g>
    <defs id="defs1">
      <linearGradient x1="155" gradientUnits="userSpaceOnUse" x2="155" y1="61" y2="157" id="linearGradient1" spreadMethod="pad">
        <stop stop-opacity="1" stop-color="rgb(255,230,191)" offset="0%"/>
        <stop stop-opacity="1" stop-color="rgb(255,173,51)" offset="100%"/>
      </linearGradient>
      <linearGradient x1="433" gradientUnits="userSpaceOnUse" x2="433" y1="331" y2="427" id="linearGradient2" spreadMethod="pad">
        <stop stop-opacity="1" stop-color="rgb(255,230,191)" offset="0%"/>
        <stop stop-opacity="1" stop-color="rgb(255,173,51)" offset="100%"/>
      </linearGradient>
      <linearGradient x1="-123" gradientUnits="userSpaceOnUse" x2="-123" y1="331" y2="427" id="linearGradient3" spreadMethod="pad">
        <stop stop-opacity="1" stop-color="rgb(255,230,191)" offset="0%"/>
        <stop stop-opacity="1" stop-color="rgb(255,173,51)" offset="100%"/>
      </linearGradient>
      <linearGradient x1="-123" gradientUnits="userSpaceOnUse" x2="-123" y1="61" y2="157" id="linearGradient4" spreadMethod="pad">
        <stop stop-opacity="1" stop-color="rgb(255,230,191)" offset="0%"/>
        <stop stop-opacity="1" stop-color="rgb(255,173,51)" offset="100%"/>
      </linearGradient>
      <linearGradient x1="433" gradientUnits="userSpaceOnUse" x2="433" y1="61" y2="157" id="linearGradient5" spreadMethod="pad">
        <stop stop-opacity="1" stop-color="rgb(255,230,191)" offset="0%"/>
        <stop stop-opacity="1" stop-color="rgb(255,173,51)" offset="100%"/>
      </linearGradient>
      <clipPath clipPathUnits="userSpaceOnUse" id="clipPath1">
        <path d="M0 0 L774 0 L774 488 L0 488 L0 0 Z"/>
      </clipPath>
      <clipPath clipPathUnits="userSpaceOnUse" id="clipPath2">
        <path d="M-138 47 L636 47 L636 535 L-138 535 L-138 47 Z"/>
      </clipPath>
    </defs>
    <g fill="white" text-rendering="geometricPrecision" shape-rendering="geometricPrecision" transform="translate(138,-47)" stroke="white">
      <rect x="-138" width="774" height="488" y="47" clip-path="url(#clipPath2)" stroke="none"/>
    </g>
    <g fill="rgb(255,153,0)" text-rendering="geometricPrecision" shape-rendering="geometricPrecision" transform="matrix(1,0,0,1,138,-47)" stroke="rgb(255,153,0)">
      <path d="M155 155 L343 155 L343 247 Q343 250 340 250 L158 250 Q155 250 155 247 Z" stroke="none" clip-path="url(#clipPath2)"/>
      <path fill="url(#linearGradient1)" d="M155 65 Q155 62 158 62 L340 62 Q343 62 343 65 L343 156 L155 156 Z" clip-path="url(#clipPath2)" stroke="none"/>
      <path fill="none" d="M157 65 Q157 64 158 64 L340 64 Q341 64 341 65 L341 247 Q341 248 340 248 L158 248 Q157 248 157 247 Z" stroke-width="2" clip-path="url(#clipPath2)" stroke="rgb(255,240,217)"/>
      <path fill="none" d="M157 65 Q157 64 158 64 L340 64 Q341 64 341 65 L341 247 Q341 248 340 248 L158 248 Q157 248 157 247 Z" clip-path="url(#clipPath2)"/>
    </g>
    <g text-rendering="geometricPrecision" stroke-miterlimit="1.45" shape-rendering="geometricPrecision" font-family="sans-serif" transform="matrix(1,0,0,1,138,-47)" stroke-linecap="butt">
      <text x="207.876" xml:space="preserve" y="139.2012" clip-path="url(#clipPath2)" stroke="none">МЕНЕДЖЕРЫ</text>
      <text x="247.0928" xml:space="preserve" y="153.1699" clip-path="url(#clipPath2)" stroke="none"> </text>
      <text x="247.0928" xml:space="preserve" y="167.1387" clip-path="url(#clipPath2)" stroke="none"> </text>
      <text x="204.5303" xml:space="preserve" y="181.1074" clip-path="url(#clipPath2)" stroke="none">id name salary</text>
    </g>
    <g fill="rgb(255,153,0)" text-rendering="geometricPrecision" shape-rendering="geometricPrecision" transform="matrix(1,0,0,1,138,-47)" stroke="rgb(255,153,0)">
      <path d="M433 425 L621 425 L621 517 Q621 520 618 520 L436 520 Q433 520 433 517 Z" stroke="none" clip-path="url(#clipPath2)"/>
      <path fill="url(#linearGradient2)" d="M433 335 Q433 332 436 332 L618 332 Q621 332 621 335 L621 426 L433 426 Z" clip-path="url(#clipPath2)" stroke="none"/>
      <path fill="none" d="M435 335 Q435 334 436 334 L618 334 Q619 334 619 335 L619 517 Q619 518 618 518 L436 518 Q435 518 435 517 Z" stroke-width="2" clip-path="url(#clipPath2)" stroke="rgb(255,240,217)"/>
      <path fill="none" d="M435 335 Q435 334 436 334 L618 334 Q619 334 619 335 L619 517 Q619 518 618 518 L436 518 Q435 518 435 517 Z" clip-path="url(#clipPath2)"/>
    </g>
    <g text-rendering="geometricPrecision" stroke-miterlimit="1.45" shape-rendering="geometricPrecision" font-family="sans-serif" transform="matrix(1,0,0,1,138,-47)" stroke-linecap="butt">
      <text x="500.5098" xml:space="preserve" y="416.1855" clip-path="url(#clipPath2)" stroke="none">БОНУСЫ</text>
      <text x="525.0928" xml:space="preserve" y="430.1543" clip-path="url(#clipPath2)" stroke="none"> </text>
      <text x="458.5977" xml:space="preserve" y="444.123" clip-path="url(#clipPath2)" stroke="none">id from to name salary</text>
    </g>
    <g fill="rgb(255,153,0)" text-rendering="geometricPrecision" shape-rendering="geometricPrecision" transform="matrix(1,0,0,1,138,-47)" stroke="rgb(255,153,0)">
      <path d="M-123 425 L65 425 L65 517 Q65 520 62 520 L-120 520 Q-123 520 -123 517 Z" stroke="none" clip-path="url(#clipPath2)"/>
      <path fill="url(#linearGradient3)" d="M-123 335 Q-123 332 -120 332 L62 332 Q65 332 65 335 L65 426 L-123 426 Z" clip-path="url(#clipPath2)" stroke="none"/>
      <path fill="none" d="M-121 335 Q-121 334 -120 334 L62 334 Q63 334 63 335 L63 517 Q63 518 62 518 L-120 518 Q-121 518 -121 517 Z" stroke-width="2" clip-path="url(#clipPath2)" stroke="rgb(255,240,217)"/>
      <path fill="none" d="M-121 335 Q-121 334 -120 334 L62 334 Q63 334 63 335 L63 517 Q63 518 62 518 L-120 518 Q-121 518 -121 517 Z" clip-path="url(#clipPath2)"/>
    </g>
    <g text-rendering="geometricPrecision" stroke-miterlimit="1.45" shape-rendering="geometricPrecision" font-family="sans-serif" transform="matrix(1,0,0,1,138,-47)" stroke-linecap="butt">
      <text x="-77.8291" xml:space="preserve" y="416.1855" clip-path="url(#clipPath2)" stroke="none">ОТЧЕТ ЗА ДЕНЬ</text>
      <text x="-30.9072" xml:space="preserve" y="430.1543" clip-path="url(#clipPath2)" stroke="none"> </text>
      <text x="-102.6055" xml:space="preserve" y="444.123" clip-path="url(#clipPath2)" stroke="none">id manager_id date calls</text>
    </g>
    <g fill="rgb(255,153,0)" text-rendering="geometricPrecision" shape-rendering="geometricPrecision" transform="matrix(1,0,0,1,138,-47)" stroke="rgb(255,153,0)">
      <path d="M-123 155 L65 155 L65 247 Q65 250 62 250 L-120 250 Q-123 250 -123 247 Z" stroke="none" clip-path="url(#clipPath2)"/>
      <path fill="url(#linearGradient4)" d="M-123 65 Q-123 62 -120 62 L62 62 Q65 62 65 65 L65 156 L-123 156 Z" clip-path="url(#clipPath2)" stroke="none"/>
      <path fill="none" d="M-121 65 Q-121 64 -120 64 L62 64 Q63 64 63 65 L63 247 Q63 248 62 248 L-120 248 Q-121 248 -121 247 Z" stroke-width="2" clip-path="url(#clipPath2)" stroke="rgb(255,240,217)"/>
      <path fill="none" d="M-121 65 Q-121 64 -120 64 L62 64 Q63 64 63 65 L63 247 Q63 248 62 248 L-120 248 Q-121 248 -121 247 Z" clip-path="url(#clipPath2)"/>
    </g>
    <g text-rendering="geometricPrecision" stroke-miterlimit="1.45" shape-rendering="geometricPrecision" font-family="sans-serif" transform="matrix(1,0,0,1,138,-47)" stroke-linecap="butt">
      <text x="-54.9453" xml:space="preserve" y="146.1855" clip-path="url(#clipPath2)" stroke="none">ЗВОНКИ</text>
      <text x="-30.9072" xml:space="preserve" y="160.1543" clip-path="url(#clipPath2)" stroke="none"> </text>
      <text x="-79.8945" xml:space="preserve" y="174.123" clip-path="url(#clipPath2)" stroke="none">id manager_id dt</text>
    </g>
    <g fill="rgb(255,153,0)" text-rendering="geometricPrecision" shape-rendering="geometricPrecision" transform="matrix(1,0,0,1,138,-47)" stroke="rgb(255,153,0)">
      <path d="M433 155 L621 155 L621 247 Q621 250 618 250 L436 250 Q433 250 433 247 Z" stroke="none" clip-path="url(#clipPath2)"/>
      <path fill="url(#linearGradient5)" d="M433 65 Q433 62 436 62 L618 62 Q621 62 621 65 L621 156 L433 156 Z" clip-path="url(#clipPath2)" stroke="none"/>
      <path fill="none" d="M435 65 Q435 64 436 64 L618 64 Q619 64 619 65 L619 247 Q619 248 618 248 L436 248 Q435 248 435 247 Z" stroke-width="2" clip-path="url(#clipPath2)" stroke="rgb(255,240,217)"/>
      <path fill="none" d="M435 65 Q435 64 436 64 L618 64 Q619 64 619 65 L619 247 Q619 248 618 248 L436 248 Q435 248 435 247 Z" clip-path="url(#clipPath2)"/>
    </g>
    <g text-rendering="geometricPrecision" stroke-miterlimit="1.45" shape-rendering="geometricPrecision" font-family="sans-serif" transform="matrix(1,0,0,1,138,-47)" stroke-linecap="butt">
      <text x="473.293" xml:space="preserve" y="139.2012" clip-path="url(#clipPath2)" stroke="none">ОТЧЕТ ЗА МЕСЯЦ</text>
      <text x="525.0928" xml:space="preserve" y="153.1699" clip-path="url(#clipPath2)" stroke="none"> </text>
      <text x="468.7373" xml:space="preserve" y="167.1387" clip-path="url(#clipPath2)" stroke="none">id manager_id date</text>
      <text x="483.0635" xml:space="preserve" y="181.1074" clip-path="url(#clipPath2)" stroke="none"> calls bonus_id</text>
    </g>
    <g text-rendering="geometricPrecision" stroke-miterlimit="1.45" shape-rendering="geometricPrecision" transform="matrix(1,0,0,1,138,-47)" stroke-linecap="butt">
      <path fill="none" d="M155.0325 156 L73.0381 156" clip-path="url(#clipPath2)"/>
    </g>
    <g text-rendering="geometricPrecision" stroke-miterlimit="1.45" shape-rendering="geometricPrecision" transform="matrix(1,0,0,1,138,-47)" stroke-linecap="butt">
      <path d="M65.0381 156 L77.0381 161 L74.0381 156 L77.0381 151 Z" stroke="none" clip-path="url(#clipPath2)"/>
      <path fill="none" d="M-29 250.032 L-29 323.9585" clip-path="url(#clipPath2)"/>
      <path d="M-29 331.9585 L-24 319.9585 L-29 322.9585 L-34 319.9585 Z" clip-path="url(#clipPath2)" stroke="none"/>
      <path fill="none" d="M342.9675 156 L424.9619 156" clip-path="url(#clipPath2)"/>
      <path d="M432.9619 156 L420.9619 151 L423.9619 156 L420.9619 161 Z" clip-path="url(#clipPath2)" stroke="none"/>
      <path fill="none" d="M527 331.968 L527 258.0415" clip-path="url(#clipPath2)"/>
      <path d="M527 250.0415 L522 262.0415 L527 259.0415 L532 262.0415 Z" clip-path="url(#clipPath2)" stroke="none"/>
    </g>
  </g>
</svg>
